# xmcd CD database file
#
# Track frame offsets:
#	150
#	18246
#	39508
#	58214
#	78803
#	95837
#	108803
#	128399
#	146583
#	161373
#	179635
#	193074
#	213099
#	232727
#
# Disc length: 3297 seconds
#
# Revision: 0
# Processed by: cddbd v1.5.2PL0 Copyright (c) Steve Scherf et al.
# Submitted via: CDex 1.70beta2
#
DISCID=ae0cdf0e
DTITLE=Alicja Boncol and Koalicja - BIG POWER KICK
DYEAR=2018
DGENRE=Country
TTITLE0=Find my way
TTITLE1=Just one word
TTITLE2=Big power kick
TTITLE3=I will always be there
TTITLE4=Hey you
TTITLE5=Courtship online
TTITLE6=Angel's face
TTITLE7=When skies were blue
TTITLE8=No love without trust
TTITLE9=Violets are red
TTITLE10=I wanna man
TTITLE11=Jeden gest
TTITLE12=Twarz anioła
TTITLE13=Amazing grace
EXTD=YEAR: 2018
EXTT0=
EXTT1=
EXTT2=
EXTT3=
EXTT4=
EXTT5=
EXTT6=
EXTT7=
EXTT8=
EXTT9=
EXTT10=
EXTT11=
EXTT12=
EXTT13=
PLAYORDER=
